<svg width="756" height="344" viewBox="0 0 756 344" fill="none" xmlns="http://www.w3.org/2000/svg">
    <path d="M286.386 44.9563C332.827 -14.8381 423.173 -14.8381 469.614 44.9563L529.767 122.406C544.366 141.202 564.392 155.053 587.131 162.08L673.413 188.745C750.591 212.597 780.369 306.06 731.213 370.162L683.678 432.149C668.224 452.302 659.811 476.969 659.729 502.365L659.463 585.266C659.213 662.935 584.19 718.421 509.852 695.917L411.611 666.175C389.695 659.54 366.305 659.54 344.389 666.175L246.148 695.917C171.81 718.421 96.7873 662.935 96.5375 585.266L96.2708 502.365C96.1891 476.969 87.7757 452.302 72.3218 432.149L24.7871 370.162C-24.3691 306.06 5.40857 212.597 82.5869 188.745L168.869 162.08C191.608 155.053 211.634 141.202 226.233 122.406L286.386 44.9563Z" fill="url(#paint0_linear_105_1654)"/>
    <defs>
        <linearGradient id="paint0_linear_105_1654" x1="377.151" y1="-8.71429" x2="377.974" y2="507.189" gradientUnits="userSpaceOnUse">
            <stop stop-color="#ECBA4A"/>
            <stop offset="1" stop-color="#EB964A"/>
        </linearGradient>
    </defs>
</svg>
