<svg width="222" height="276" viewBox="0 0 222 276" fill="none" xmlns="http://www.w3.org/2000/svg">
    <path d="M154.403 -130.557C187.342 -163.411 240.658 -163.411 273.597 -130.557L294.099 -110.108C306.213 -98.0249 321.714 -89.9096 338.546 -86.8381L358.942 -83.1162C410.672 -73.6764 441.011 -19.0579 422.567 30.1859C415.418 49.2724 415.418 70.7276 422.567 89.8141C441.011 139.058 410.672 193.676 358.942 203.116L338.546 206.838C321.714 209.91 306.213 218.025 294.099 230.108L273.597 250.557C240.658 283.411 187.342 283.411 154.403 250.557L133.901 230.108C121.787 218.025 106.286 209.91 89.4543 206.838L69.0583 203.116C17.3278 193.676 -13.0114 139.058 5.43304 89.8141C12.5819 70.7276 12.5819 49.2724 5.43304 30.1859C-13.0114 -19.0579 17.3279 -73.6764 69.0583 -83.1162L89.4543 -86.8381C106.286 -89.9096 121.787 -98.0249 133.901 -110.108L154.403 -130.557Z" fill="url(#paint0_linear_74_1390)"/>
    <defs>
        <linearGradient id="paint0_linear_74_1390" x1="213.499" y1="-154.286" x2="213.499" y2="245.02" gradientUnits="userSpaceOnUse">
            <stop stop-color="#714DA8"/>
            <stop offset="1" stop-color="#474C98"/>
        </linearGradient>
    </defs>
</svg>
